<?xml version="1.0" encoding="UTF-8" standalone="no"?>
<!-- Created with Inkscape (http://www.inkscape.org/) -->

<svg
   width="31.25873mm"
   height="56.159256mm"
   viewBox="0 0 31.25873 56.159255"
   version="1.1"
   id="svg1"
   inkscape:version="1.3.2 (091e20e, 2023-11-25, custom)"
   sodipodi:docname="inomeado.svg"
   xmlns:inkscape="http://www.inkscape.org/namespaces/inkscape"
   xmlns:sodipodi="http://sodipodi.sourceforge.net/DTD/sodipodi-0.dtd"
   xmlns="http://www.w3.org/2000/svg"
   xmlns:svg="http://www.w3.org/2000/svg">
  <sodipodi:namedview
     id="namedview1"
     pagecolor="#505050"
     bordercolor="#eeeeee"
     borderopacity="1"
     inkscape:showpageshadow="0"
     inkscape:pageopacity="0"
     inkscape:pagecheckerboard="0"
     inkscape:deskcolor="#505050"
     inkscape:document-units="mm"
     inkscape:zoom="4.2784722"
     inkscape:cx="60.769356"
     inkscape:cy="55.977926"
     inkscape:window-width="1920"
     inkscape:window-height="1054"
     inkscape:window-x="-9"
     inkscape:window-y="-9"
     inkscape:window-maximized="1"
     inkscape:current-layer="layer1" />
  <defs
     id="defs1">
    <clipPath
       clipPathUnits="userSpaceOnUse"
       id="clipPath217">
      <path
         d="m 210.047,210.047 h 5810.92 v 7795.18 H 210.047 Z"
         transform="translate(0,-2.5000001e-4)"
         id="path217" />
    </clipPath>
    <clipPath
       clipPathUnits="userSpaceOnUse"
       id="clipPath218">
      <path
         d="m 3169.83,5749.41 h 855.148 V 7266.34 H 3169.83 Z"
         transform="matrix(0.1,0,0,-0.1,-398.28201,719.98602)"
         id="path218" />
    </clipPath>
    <clipPath
       clipPathUnits="userSpaceOnUse"
       id="clipPath222">
      <path
         d="m 210.047,210.047 h 5810.92 v 7795.18 H 210.047 Z"
         transform="matrix(0.1,0,0,-0.1,-382.94801,681.07002)"
         id="path222" />
    </clipPath>
    <clipPath
       clipPathUnits="userSpaceOnUse"
       id="clipPath224">
      <path
         d="m 210.047,210.047 h 5810.92 v 7795.18 H 210.047 Z"
         transform="translate(0,-2.5000001e-4)"
         id="path224" />
    </clipPath>
    <clipPath
       clipPathUnits="userSpaceOnUse"
       id="clipPath229">
      <path
         d="m 210.047,210.047 h 5810.92 v 7795.18 H 210.047 Z"
         transform="matrix(0.1,0,0,-0.1,-352.22501,649.40402)"
         id="path229" />
    </clipPath>
    <clipPath
       clipPathUnits="userSpaceOnUse"
       id="clipPath231">
      <path
         d="m 3169.83,5749.41 h 855.148 V 7266.34 H 3169.83 Z"
         transform="translate(0,-2.5000001e-4)"
         id="path231" />
    </clipPath>
    <clipPath
       clipPathUnits="userSpaceOnUse"
       id="clipPath233">
      <path
         d="m 210.047,210.047 h 5810.92 v 7795.18 H 210.047 Z"
         transform="translate(0,-2.5000001e-4)"
         id="path233" />
    </clipPath>
    <clipPath
       clipPathUnits="userSpaceOnUse"
       id="clipPath235">
      <path
         d="m 3169.83,5749.41 h 855.148 V 7266.34 H 3169.83 Z"
         transform="translate(0,-2.5000001e-4)"
         id="path235" />
    </clipPath>
    <clipPath
       clipPathUnits="userSpaceOnUse"
       id="clipPath237">
      <path
         d="m 3169.83,5749.41 h 855.148 V 7266.34 H 3169.83 Z"
         transform="translate(0,-2.5000001e-4)"
         id="path237" />
    </clipPath>
    <clipPath
       clipPathUnits="userSpaceOnUse"
       id="clipPath239">
      <path
         d="m 3169.83,5749.41 h 855.148 V 7266.34 H 3169.83 Z"
         transform="translate(0,-2.5000001e-4)"
         id="path239" />
    </clipPath>
    <clipPath
       clipPathUnits="userSpaceOnUse"
       id="clipPath241">
      <path
         d="m 3169.83,5749.41 h 855.148 V 7266.34 H 3169.83 Z"
         transform="translate(0,-2.5000001e-4)"
         id="path241" />
    </clipPath>
    <clipPath
       clipPathUnits="userSpaceOnUse"
       id="clipPath243">
      <path
         d="m 3169.83,5749.41 h 855.148 V 7266.34 H 3169.83 Z"
         transform="translate(0,-2.5000001e-4)"
         id="path243" />
    </clipPath>
    <clipPath
       clipPathUnits="userSpaceOnUse"
       id="clipPath245">
      <path
         d="m 3169.83,5749.41 h 855.148 V 7266.34 H 3169.83 Z"
         transform="translate(0,-2.5000001e-4)"
         id="path245" />
    </clipPath>
    <clipPath
       clipPathUnits="userSpaceOnUse"
       id="clipPath247">
      <path
         d="m 3169.83,5749.41 h 855.148 V 7266.34 H 3169.83 Z"
         transform="translate(0,-2.5000001e-4)"
         id="path247" />
    </clipPath>
    <clipPath
       clipPathUnits="userSpaceOnUse"
       id="clipPath249">
      <path
         d="m 3169.83,5749.41 h 855.148 V 7266.34 H 3169.83 Z"
         transform="translate(0,-2.5000001e-4)"
         id="path249" />
    </clipPath>
  </defs>
  <g
     inkscape:label="Camada 1"
     inkscape:groupmode="layer"
     id="layer1"
     transform="matrix(1.0240572,0,0,1.0361214,-92.122473,-125.2405)">
    <g
       id="g309"
       transform="matrix(0.26458333,0,0,0.26458333,-21.866227,88.085862)">
      <path
         id="path216"
         d="m 3342.82,7084.03 h 446.66 v 166.668 h -446.66 z"
         style="fill:none;stroke:#231f20;stroke-width:8;stroke-linecap:butt;stroke-linejoin:miter;stroke-miterlimit:4;stroke-dasharray:none;stroke-opacity:1"
         transform="matrix(0.13333333,0,0,-0.13333333,0,1095.3701)"
         clip-path="url(#clipPath217)" />
      <path
         id="path223"
         d="m 3342.82,6424.03 h 446.66 v 166.668 h -446.66 z"
         style="fill:none;stroke:#231f20;stroke-width:8;stroke-linecap:butt;stroke-linejoin:miter;stroke-miterlimit:4;stroke-dasharray:none;stroke-opacity:1"
         transform="matrix(0.13333333,0,0,-0.13333333,0,1095.3701)"
         clip-path="url(#clipPath224)" />
      <path
         id="path230"
         d="m 3403.51,7084.04 v -169.53 l 27.64,-10.47 -51.09,-18.42 51.09,-18.43 -51.09,-17.59 51.09,-17.58 -51.09,-19.27 51.09,-18.42 -51.09,-17.59 23.45,-9.21 v -176.82 m 327.63,134.11 v -134.11 m -165,-166.67 v -169.53 l 27.65,-10.47 -51.09,-18.43 51.09,-18.43 -51.09,-17.57 51.09,-17.59 -51.09,-19.27 51.09,-18.43 -51.09,-17.58 23.44,-9.21 V 5840.7 m 458.84,74.24 c -38.31,0 -65.5,-80.75 -65.5,-80.75 0,0 -27.19,-80.77 -65.48,-80.77 -38.31,0 -65.5,80.77 -65.5,80.77 0,0 -27.18,80.75 -65.48,80.75 -38.3,0 -65.49,-80.75 -65.49,-80.75 0,0 -27.19,-80.77 -65.48,-80.77 -38.31,0 -65.5,80.77 -65.5,80.77 0,0 -27.18,80.75 -65.48,80.75 -38.31,0 -65.5,-80.75 -65.5,-80.75 0,0 -27.18,-80.77 -65.48,-80.77 -38.31,0 -65.5,80.77 -65.5,80.77 0,0 -27.18,80.75 -65.47,80.75 -38.32,0 -65.5,-80.75 -65.5,-80.75"
         style="fill:none;stroke:#231f20;stroke-width:8;stroke-linecap:butt;stroke-linejoin:miter;stroke-miterlimit:4;stroke-dasharray:none;stroke-opacity:1"
         transform="matrix(0.13333333,0,0,-0.13333333,0,1095.3701)"
         clip-path="url(#clipPath231)" />
      <path
         id="path232"
         d="m 3789.48,7084.04 h 146.66 v 106.05"
         style="fill:none;stroke:#231f20;stroke-width:4;stroke-linecap:butt;stroke-linejoin:miter;stroke-miterlimit:4;stroke-dasharray:none;stroke-opacity:1"
         transform="matrix(0.13333333,0,0,-0.13333333,0,1095.3701)"
         clip-path="url(#clipPath233)" />
      <path
         id="path234"
         d="m 3936.14,7184.79 -18.72,-11.39 -0.43,0.64 12.14,30.54 c 2.33,10.65 4.68,21.29 7.01,31.94 2.34,-10.65 4.69,-21.29 7.03,-31.94 l 12.13,-30.54 -0.31,-0.64"
         style="fill:#231f20;fill-opacity:1;fill-rule:nonzero;stroke:none"
         transform="matrix(0.13333333,0,0,-0.13333333,0,1095.3701)"
         clip-path="url(#clipPath235)" />
      <path
         id="path236"
         d="m 3789.48,6424.04 h 146.66 v 106.05"
         style="fill:none;stroke:#231f20;stroke-width:4;stroke-linecap:butt;stroke-linejoin:miter;stroke-miterlimit:4;stroke-dasharray:none;stroke-opacity:1"
         transform="matrix(0.13333333,0,0,-0.13333333,0,1095.3701)"
         clip-path="url(#clipPath237)" />
      <path
         id="path238"
         d="m 3936.14,6524.79 -18.72,-11.4 -0.43,0.65 12.14,30.54 c 2.33,10.65 4.68,21.29 7.01,31.94 2.34,-10.65 4.69,-21.29 7.03,-31.94 l 12.13,-30.54 -0.31,-0.65"
         style="fill:#231f20;fill-opacity:1;fill-rule:nonzero;stroke:none"
         transform="matrix(0.13333333,0,0,-0.13333333,0,1095.3701)"
         clip-path="url(#clipPath239)" />
      <path
         id="path240"
         d="m 3566.14,5840.7 h -183.32 v 192.73"
         style="fill:none;stroke:#231f20;stroke-width:4;stroke-linecap:butt;stroke-linejoin:miter;stroke-miterlimit:4;stroke-dasharray:none;stroke-opacity:1"
         transform="matrix(0.13333333,0,0,-0.13333333,0,1095.3701)"
         clip-path="url(#clipPath241)" />
      <path
         id="path242"
         d="m 3382.81,6028.12 18.73,-11.38 0.43,0.64 -12.14,30.55 c -2.34,10.63 -4.68,21.29 -7.02,31.92 -2.34,-10.63 -4.68,-21.29 -7.03,-31.92 l -12.13,-30.55 0.32,-0.64"
         style="fill:#231f20;fill-opacity:1;fill-rule:nonzero;stroke:none"
         transform="matrix(0.13333333,0,0,-0.13333333,0,1095.3701)"
         clip-path="url(#clipPath243)" />
      <path
         id="path244"
         d="m 3566.14,5825.71 c 8.29,0 15,6.71 15,14.99 0,8.29 -6.71,15 -15,15 -8.28,0 -14.99,-6.71 -14.99,-15 0,-8.28 6.71,-14.99 14.99,-14.99"
         style="fill:#231f20;fill-opacity:1;fill-rule:nonzero;stroke:none"
         transform="matrix(0.13333333,0,0,-0.13333333,0,1095.3701)"
         clip-path="url(#clipPath245)" />
      <path
         id="path246"
         d="m 3731.14,7084.04 v -250 m 23.98,116.41 v -23.75 h 42.03 v -201.88 h -132.01 v 201.88 h 42.04 v 23.75"
         style="fill:none;stroke:#231f20;stroke-width:8;stroke-linecap:butt;stroke-linejoin:miter;stroke-miterlimit:4;stroke-dasharray:none;stroke-opacity:1"
         transform="matrix(0.13333333,0,0,-0.13333333,0,1095.3701)"
         clip-path="url(#clipPath247)" />
      <path
         id="path248"
         d="m 3684.42,6811.12 h 93.4375 v 45.8281 H 3684.42 Z"
         style="fill:#231f20;fill-opacity:1;fill-rule:nonzero;stroke:#231f20;stroke-width:8;stroke-linecap:butt;stroke-linejoin:miter;stroke-miterlimit:4;stroke-dasharray:none;stroke-opacity:1"
         transform="matrix(0.13333333,0,0,-0.13333333,0,1095.3701)"
         clip-path="url(#clipPath249)" />
    </g>
    <text
       xml:space="preserve"
       style="font-style:normal;font-variant:normal;font-weight:normal;font-stretch:normal;font-size:3.88056px;line-height:1;font-family:sans-serif;-inkscape-font-specification:'sans-serif, Normal';font-variant-ligatures:normal;font-variant-caps:normal;font-variant-numeric:normal;font-variant-east-asian:normal;text-align:center;text-anchor:middle;fill:#000000;stroke-width:0.264583"
       x="95.201164"
       y="137.09401"
       id="text1"><tspan
         sodipodi:role="line"
         id="tspan1"
         style="font-style:normal;font-variant:normal;font-weight:normal;font-stretch:normal;font-size:3.88056px;font-family:'Times New Roman';-inkscape-font-specification:'Times New Roman, ';stroke-width:0.264583"
         x="95.201164"
         y="137.09401">k<tspan
   style="font-size:65%;baseline-shift:sub"
   id="tspan2">s</tspan></tspan></text>
    <text
       xml:space="preserve"
       style="font-style:normal;font-variant:normal;font-weight:normal;font-stretch:normal;font-size:3.88056px;line-height:1;font-family:'Times New Roman';-inkscape-font-specification:'Times New Roman, ';font-variant-ligatures:normal;font-variant-caps:normal;font-variant-numeric:normal;font-variant-east-asian:normal;text-align:center;text-anchor:middle;fill:#000000;stroke-width:0.264583"
       x="114.19984"
       y="137.23578"
       id="text3"><tspan
         sodipodi:role="line"
         id="tspan3"
         style="stroke-width:0.264583"
         x="114.19984"
         y="137.23578">c<tspan
   style="font-size:65%;baseline-shift:sub"
   id="tspan4">s</tspan></tspan></text>
    <text
       xml:space="preserve"
       style="font-style:normal;font-variant:normal;font-weight:normal;font-stretch:normal;font-size:3.88056px;line-height:1;font-family:'Times New Roman';-inkscape-font-specification:'Times New Roman, ';font-variant-ligatures:normal;font-variant-caps:normal;font-variant-numeric:normal;font-variant-east-asian:normal;text-align:center;text-anchor:middle;fill:#000000;stroke-width:0.264583"
       x="104.2137"
       y="125.81872"
       id="text5"><tspan
         sodipodi:role="line"
         id="tspan5"
         style="stroke-width:0.264583"
         x="104.2137"
         y="125.81872">m<tspan
   style="font-size:65%;baseline-shift:sub"
   id="tspan6">s</tspan></tspan></text>
    <text
       xml:space="preserve"
       style="font-style:normal;font-variant:normal;font-weight:normal;font-stretch:normal;font-size:3.88056px;line-height:1;font-family:'Times New Roman';-inkscape-font-specification:'Times New Roman, ';font-variant-ligatures:normal;font-variant-caps:normal;font-variant-numeric:normal;font-variant-east-asian:normal;text-align:center;text-anchor:middle;fill:#000000;stroke-width:0.264583"
       x="104.05798"
       y="148.99727"
       id="text7"><tspan
         sodipodi:role="line"
         id="tspan7"
         style="stroke-width:0.264583"
         x="104.05798"
         y="148.99727">m<tspan
   style="font-size:65%;baseline-shift:sub"
   id="tspan8">u</tspan></tspan></text>
    <text
       xml:space="preserve"
       style="font-style:normal;font-variant:normal;font-weight:normal;font-stretch:normal;font-size:3.88056px;line-height:1;font-family:'Times New Roman';-inkscape-font-specification:'Times New Roman, ';font-variant-ligatures:normal;font-variant-caps:normal;font-variant-numeric:normal;font-variant-east-asian:normal;text-align:center;text-anchor:middle;fill:#000000;stroke-width:0.264583"
       x="118.95866"
       y="123.12071"
       id="text9"><tspan
         sodipodi:role="line"
         id="tspan9"
         style="stroke-width:0.264583"
         x="118.95866"
         y="123.12071">x<tspan
   style="font-size:65%;baseline-shift:sub"
   id="tspan10">s</tspan></tspan></text>
    <text
       xml:space="preserve"
       style="font-style:normal;font-variant:normal;font-weight:normal;font-stretch:normal;font-size:3.88056px;line-height:1;font-family:'Times New Roman';-inkscape-font-specification:'Times New Roman, ';font-variant-ligatures:normal;font-variant-caps:normal;font-variant-numeric:normal;font-variant-east-asian:normal;text-align:center;text-anchor:middle;fill:#000000;stroke-width:0.264583"
       x="118.88569"
       y="146.0556"
       id="text11"><tspan
         sodipodi:role="line"
         id="tspan11"
         style="stroke-width:0.264583"
         x="118.88569"
         y="146.0556">x<tspan
   style="font-size:65%;baseline-shift:sub"
   id="tspan12">u</tspan></tspan></text>
    <text
       xml:space="preserve"
       style="font-style:normal;font-variant:normal;font-weight:normal;font-stretch:normal;font-size:3.88056px;line-height:1;font-family:'Times New Roman';-inkscape-font-specification:'Times New Roman, ';font-variant-ligatures:normal;font-variant-caps:normal;font-variant-numeric:normal;font-variant-east-asian:normal;text-align:center;text-anchor:middle;fill:#000000;stroke-width:0.264583"
       x="100.63488"
       y="160.27966"
       id="text13"><tspan
         sodipodi:role="line"
         id="tspan13"
         style="stroke-width:0.264583"
         x="100.63488"
         y="160.27966">k<tspan
   style="font-size:65%;baseline-shift:sub"
   id="tspan14">t</tspan></tspan></text>
    <text
       xml:space="preserve"
       style="font-style:normal;font-variant:normal;font-weight:normal;font-stretch:normal;font-size:3.88056px;line-height:1;font-family:'Times New Roman';-inkscape-font-specification:'Times New Roman, ';font-variant-ligatures:normal;font-variant-caps:normal;font-variant-numeric:normal;font-variant-east-asian:normal;text-align:center;text-anchor:middle;fill:#000000;stroke-width:0.264583"
       x="95.084831"
       y="165.13063"
       id="text15"><tspan
         sodipodi:role="line"
         id="tspan15"
         style="stroke-width:0.264583"
         x="95.084831"
         y="165.13063">x<tspan
   style="font-size:65%;baseline-shift:sub"
   id="tspan16">r</tspan></tspan></text>
  </g>
</svg>
